<?xml version="1.0" standalone="no"?>
<!DOCTYPE svg PUBLIC "-//W3C//DTD SVG 20010904//EN"
 "http://www.w3.org/TR/2001/REC-SVG-20010904/DTD/svg10.dtd">
<svg version="1.0" xmlns="http://www.w3.org/2000/svg"
 width="300.000000pt" height="70.000000pt" viewBox="0 0 300.000000 70.000000"
 preserveAspectRatio="xMidYMid meet">

<g transform="translate(0.000000,70.000000) scale(0.100000,-0.100000)"
fill="#000000" stroke="none">
<path d="M58 649 c-16 -9 -18 -29 -18 -190 l0 -179 26 -10 c14 -6 59 -10 100
-10 73 0 75 -1 69 -22 -11 -37 -50 -70 -92 -78 -21 -4 72 -8 207 -8 135 0 228
4 207 8 -41 8 -81 41 -91 76 -6 21 -3 22 84 25 67 3 93 8 100 19 15 23 13 353
-2 368 -15 15 -564 17 -590 1z m566 -5 c14 -5 16 -31 16 -185 l0 -179 -290 0
-290 0 0 180 0 179 148 4 c336 6 401 7 416 1z m-143 -460 l22 -24 -152 0 -153
0 26 31 c14 17 26 39 26 49 0 17 10 20 98 22 l97 3 6 -28 c4 -16 17 -39 30
-53z"/>
<path d="M460 603 c-8 -3 -31 -18 -50 -33 l-35 -28 -60 19 c-62 19 -85 18
-105 -6 -9 -11 -2 -19 37 -41 26 -15 50 -29 52 -31 2 -1 -2 -10 -9 -18 -10
-12 -23 -15 -50 -10 -28 5 -40 2 -53 -13 -16 -18 -15 -19 22 -40 22 -12 53
-39 69 -60 30 -36 30 -37 51 -18 15 14 19 26 14 44 -4 18 -1 29 13 39 17 13
22 10 54 -27 58 -68 99 -30 58 54 l-22 46 42 38 c43 40 51 59 30 80 -13 13
-33 14 -58 5z m48 -28 c3 -11 -11 -31 -38 -54 l-41 -36 20 -45 c40 -87 19
-107 -39 -39 l-36 42 -29 -26 c-26 -22 -28 -28 -18 -46 10 -15 9 -22 -1 -30
-10 -8 -18 -5 -32 11 -10 11 -38 33 -62 48 -35 23 -40 30 -28 39 11 9 20 10
36 1 17 -9 26 -7 50 10 17 12 30 25 30 29 0 4 -23 20 -50 35 -80 43 -45 61 57
29 52 -16 53 -16 75 5 29 26 80 53 93 49 6 -2 12 -12 13 -22z"/>
<path d="M805 575 c-70 -25 -75 -38 -75 -199 0 -162 8 -187 59 -197 44 -9 127
12 154 40 l21 21 26 -31 c20 -24 36 -32 72 -36 44 -5 50 -3 82 29 l34 34 37
-34 c33 -30 42 -34 77 -29 25 3 51 16 69 33 23 22 29 24 29 11 0 -9 11 -24 25
-33 23 -15 27 -15 50 0 14 9 28 30 32 47 l6 30 24 -36 c25 -36 67 -55 85 -37
6 6 25 8 42 5 22 -3 38 0 49 11 15 16 18 15 37 -4 25 -25 45 -25 67 -2 17 16
19 16 40 -5 19 -20 26 -21 47 -11 14 6 31 23 38 38 l12 28 27 -29 c19 -20 37
-29 58 -29 17 0 31 -4 31 -9 0 -15 -23 -18 -53 -7 -19 7 -33 7 -44 0 -75 -47
-6 -141 97 -131 55 6 104 55 122 121 10 37 14 42 28 33 32 -20 70 0 91 49 20
44 39 51 39 13 0 -50 44 -84 88 -68 20 8 22 6 22 -27 0 -19 7 -50 14 -69 12
-29 20 -35 45 -35 39 0 61 32 61 87 0 41 1 43 29 43 17 0 42 11 59 25 l29 25
5 -65 c7 -76 28 -115 63 -115 30 0 52 31 61 87 6 37 10 42 39 47 60 12 98 73
99 161 0 68 -16 109 -57 139 -24 18 -32 19 -70 9 -26 -7 -46 -8 -51 -2 -17 16
-44 10 -64 -16 -18 -22 -21 -23 -33 -9 -21 26 -58 35 -96 25 -25 -7 -41 -6
-54 2 -23 14 -48 2 -65 -32 -11 -21 -13 -20 -29 28 -9 28 -28 60 -42 71 -59
46 -138 9 -170 -81 l-18 -49 -15 33 c-12 25 -22 32 -45 33 -17 0 -42 4 -57 8
-36 10 -67 -1 -99 -36 l-27 -28 -31 30 c-27 27 -36 30 -88 29 -32 0 -66 0 -77
1 -10 0 -27 -7 -37 -16 -17 -15 -19 -15 -19 -1 0 9 5 19 10 22 18 11 10 44
-14 61 -49 32 -110 -28 -75 -74 11 -14 11 -15 -1 -4 -21 18 -54 15 -83 -8 -34
-27 -37 -26 -37 18 0 69 -55 107 -92 65 -15 -18 -20 -30 -32 -85 -6 -27 -7
-27 -26 -8 -43 43 -127 32 -164 -22 l-15 -22 -21 27 c-40 50 -112 55 -162 10
-15 -13 -16 -13 -11 5 7 28 -22 79 -57 97 -36 18 -73 19 -125 0z m1578 -35
c25 -29 48 -110 62 -215 11 -87 -28 -143 -67 -96 -10 13 -18 39 -18 58 0 28
-3 34 -16 29 -9 -3 -24 -6 -34 -6 -12 0 -20 -10 -24 -34 -8 -44 -40 -74 -61
-56 -24 20 -27 70 -10 152 20 97 39 143 72 174 35 32 66 30 96 -6z m-1446 -2
c30 -28 30 -75 -2 -121 -23 -35 -23 -37 -5 -47 25 -13 35 -64 20 -100 -21 -51
-135 -89 -179 -61 -11 7 -16 39 -19 130 -6 159 0 189 41 206 50 22 117 19 144
-7z m543 3 c5 -11 10 -48 10 -82 l0 -63 45 47 c44 46 74 60 76 35 3 -27 -4
-44 -28 -76 l-25 -33 26 -58 c29 -66 33 -96 11 -104 -17 -7 -55 36 -75 82 -17
43 -34 34 -42 -22 -3 -25 -9 -51 -13 -56 -11 -19 -43 -12 -52 12 -10 31 -5
265 8 305 12 37 42 43 59 13z m220 0 c0 -23 -28 -35 -46 -20 -11 9 -11 15 -3
25 17 21 49 17 49 -5z m99 -68 c7 -14 12 -15 24 -4 9 7 33 11 54 9 52 -4 65
-32 59 -124 -5 -78 -26 -141 -52 -151 -27 -10 -35 18 -28 108 6 92 -3 118 -30
77 -9 -14 -15 -46 -15 -86 1 -63 -11 -92 -37 -92 -25 0 -34 39 -34 147 0 108
7 133 37 133 6 0 16 -8 22 -17z m307 2 c5 -11 10 -12 25 -2 35 22 44 -4 43
-131 -1 -199 -36 -272 -131 -272 -34 0 -50 6 -69 25 -36 36 -26 51 33 47 53
-2 75 11 85 54 5 20 2 21 -33 17 -33 -5 -42 -1 -69 25 -26 26 -30 38 -30 82 0
56 20 113 52 147 25 27 85 32 94 8z m-976 -15 c28 -28 40 -63 40 -115 0 -131
-100 -196 -168 -110 -43 55 -36 172 13 221 31 31 87 32 115 4z m212 0 c54 -42
56 -177 3 -234 -36 -38 -88 -38 -122 0 -74 82 -32 254 62 254 18 0 44 -9 57
-20z m359 -7 c15 -38 7 -206 -10 -227 -22 -26 -39 -18 -52 22 -15 50 -8 194
10 215 20 25 40 21 52 -10z m833 11 c5 -14 8 -14 28 0 48 34 102 14 118 -42
15 -55 12 -102 -10 -149 -20 -45 -48 -60 -95 -51 -24 5 -25 3 -25 -43 0 -87
-33 -128 -62 -76 -17 31 -24 288 -9 338 12 41 43 54 55 23z m242 1 c5 -13 8
-13 27 0 34 24 84 19 103 -10 36 -56 30 -165 -12 -210 -22 -23 -31 -27 -65
-22 l-39 5 0 -55 c0 -84 -33 -123 -61 -71 -14 26 -19 306 -6 351 8 30 43 38
53 12z m-1179 -117 c-3 -7 -5 -2 -5 12 0 14 2 19 5 13 2 -7 2 -19 0 -25z"/>
<path d="M2311 449 c-18 -51 -14 -71 12 -67 24 3 33 32 23 74 -9 33 -22 30
-35 -7z"/>
<path d="M840 461 c-14 -28 -12 -51 5 -51 18 0 38 37 31 56 -8 20 -23 17 -36
-5z"/>
<path d="M842 328 c-16 -16 -15 -38 1 -38 17 0 37 20 37 37 0 16 -22 17 -38 1z"/>
<path d="M2046 394 c-26 -26 -19 -114 9 -114 38 0 63 88 33 118 -16 16 -23 15
-42 -4z m32 -55 c-4 -28 -28 -38 -28 -11 0 11 3 28 6 37 9 23 27 3 22 -26z"/>
<path d="M1062 398 c-15 -15 -16 -92 -1 -119 17 -33 39 -5 39 50 0 55 -18 89
-38 69z m15 -70 c-3 -7 -5 -2 -5 12 0 14 2 19 5 13 2 -7 2 -19 0 -25z"/>
<path d="M1269 389 c-11 -21 -8 -104 4 -116 4 -3 13 -3 22 0 11 5 15 20 15 56
0 78 -17 104 -41 60z m18 -61 c-3 -7 -5 -2 -5 12 0 14 2 19 5 13 2 -7 2 -19 0
-25z"/>
<path d="M2562 392 c-8 -6 -12 -24 -10 -48 3 -34 6 -39 30 -42 22 -3 29 2 33
21 15 58 -14 94 -53 69z m29 -53 c-8 -21 -10 -22 -16 -6 -10 23 2 54 16 40 6
-6 6 -18 0 -34z"/>
<path d="M2803 393 c-16 -6 -17 -65 -1 -81 17 -17 45 -15 52 4 3 9 6 31 6 50
0 29 -3 34 -22 33 -13 0 -29 -3 -35 -6z m37 -37 c0 -14 -4 -27 -9 -30 -10 -6
-23 33 -15 46 10 16 24 7 24 -16z"/>
</g>
</svg>
